<svg width="96" height="96" viewBox="0 0 96 96" fill="none" xmlns="http://www.w3.org/2000/svg">
<g filter="url(#filter0_d_1_163)">
<rect x="20" y="16" width="56" height="56" rx="28" fill="white"/>
<path d="M38.6666 34.6666H57.3333V31.9999H38.6666V34.6666ZM57.3333 34.6666V53.3333H59.9999V34.6666H57.3333ZM57.3333 53.3333H38.6666V55.9999H57.3333V53.3333ZM38.6666 53.3333V34.6666H35.9999V53.3333H38.6666ZM38.6666 53.3333H35.9999C35.9999 54.806 37.1938 55.9999 38.6666 55.9999V53.3333ZM57.3333 53.3333V55.9999C58.806 55.9999 59.9999 54.806 59.9999 53.3333H57.3333ZM57.3333 34.6666H59.9999C59.9999 33.1938 58.806 31.9999 57.3333 31.9999V34.6666ZM38.6666 31.9999C37.1938 31.9999 35.9999 33.1938 35.9999 34.6666H38.6666V31.9999Z" fill="#9B9EA5"/>
<path d="M53.3333 49.3333H53.3353V49.3353H53.3333V49.3333Z" stroke="#9B9EA5" stroke-width="2.66667" stroke-linecap="round" stroke-linejoin="round"/>
<path d="M48 49.3333H48.002V49.3353H48V49.3333Z" stroke="#9B9EA5" stroke-width="2.66667" stroke-linecap="round" stroke-linejoin="round"/>
<path d="M42.6667 49.3333H42.6687V49.3353H42.6667V49.3333Z" stroke="#9B9EA5" stroke-width="2.66667" stroke-linecap="round" stroke-linejoin="round"/>
<path d="M53.3333 44V42.6667C52.5969 42.6667 51.9999 43.2636 51.9999 44H53.3333ZM53.3353 44H54.6686C54.6686 43.2636 54.0716 42.6667 53.3353 42.6667V44ZM53.3353 44.002V45.3353C54.0716 45.3353 54.6686 44.7384 54.6686 44.002H53.3353ZM53.3333 44.002H51.9999C51.9999 44.7384 52.5969 45.3353 53.3333 45.3353V44.002ZM53.3333 45.3333H53.3353V42.6667H53.3333V45.3333ZM52.0019 44V44.002H54.6686V44H52.0019ZM53.3353 42.6687H53.3333V45.3353H53.3353V42.6687ZM54.6666 44.002V44H51.9999V44.002H54.6666Z" fill="#9B9EA5"/>
<path d="M48 44H48.002V44.002H48V44Z" stroke="#9B9EA5" stroke-width="2.66667" stroke-linecap="round" stroke-linejoin="round"/>
<path d="M42.6667 44H42.6687V44.002H42.6667V44Z" stroke="#9B9EA5" stroke-width="2.66667" stroke-linecap="round" stroke-linejoin="round"/>
<path d="M37.3333 37.3334C36.5969 37.3334 35.9999 37.9304 35.9999 38.6667C35.9999 39.4031 36.5969 40.0001 37.3333 40.0001V37.3334ZM58.6666 40.0001C59.403 40.0001 59.9999 39.4031 59.9999 38.6667C59.9999 37.9304 59.403 37.3334 58.6666 37.3334V40.0001ZM37.3333 40.0001H58.6666V37.3334H37.3333V40.0001Z" fill="#9B9EA5"/>
<path d="M54.6666 30.6667C54.6666 29.9304 54.0696 29.3334 53.3333 29.3334C52.5969 29.3334 51.9999 29.9304 51.9999 30.6667H54.6666ZM51.9999 33.3334C51.9999 34.0698 52.5969 34.6667 53.3333 34.6667C54.0696 34.6667 54.6666 34.0698 54.6666 33.3334H51.9999ZM51.9999 30.6667V33.3334H54.6666V30.6667H51.9999Z" fill="#9B9EA5"/>
<path d="M44.0001 30.6667C44.0001 29.9304 43.4031 29.3334 42.6667 29.3334C41.9304 29.3334 41.3334 29.9304 41.3334 30.6667H44.0001ZM41.3334 33.3334C41.3334 34.0698 41.9304 34.6667 42.6667 34.6667C43.4031 34.6667 44.0001 34.0698 44.0001 33.3334H41.3334ZM41.3334 30.6667V33.3334H44.0001V30.6667H41.3334Z" fill="#9B9EA5"/>
</g>
<defs>
<filter id="filter0_d_1_163" x="0" y="0" width="96" height="96" filterUnits="userSpaceOnUse" color-interpolation-filters="sRGB">
<feFlood flood-opacity="0" result="BackgroundImageFix"/>
<feColorMatrix in="SourceAlpha" type="matrix" values="0 0 0 0 0 0 0 0 0 0 0 0 0 0 0 0 0 0 127 0" result="hardAlpha"/>
<feOffset dy="4"/>
<feGaussianBlur stdDeviation="10"/>
<feColorMatrix type="matrix" values="0 0 0 0 0.965065 0 0 0 0 0.965065 0 0 0 0 0.965065 0 0 0 1 0"/>
<feBlend mode="normal" in2="BackgroundImageFix" result="effect1_dropShadow_1_163"/>
<feBlend mode="normal" in="SourceGraphic" in2="effect1_dropShadow_1_163" result="shape"/>
</filter>
</defs>
</svg>
