<svg width="96" height="96" viewBox="0 0 96 96" fill="none" xmlns="http://www.w3.org/2000/svg">
<g filter="url(#filter0_d_1_205)">
<rect x="20" y="16" width="56" height="56" rx="28" fill="#5F7AEA"/>
<path d="M48.8782 32.7684L48.0002 33.7718L48.0002 33.7718L48.8782 32.7684ZM58.2115 40.935L57.3335 41.9385V41.9385L58.2115 40.935ZM37.7888 40.935L38.6668 41.9385H38.6668L37.7888 40.935ZM47.1222 32.7684L46.2442 31.7649L46.2442 31.7649L47.1222 32.7684ZM48.0002 33.7718L57.3335 41.9385L59.0895 39.9316L49.7562 31.7649L48.0002 33.7718ZM57.3335 41.9385V53.3335H60.0002V41.9385H57.3335ZM38.6668 53.3335V41.9385H36.0002V53.3335H38.6668ZM38.6668 41.9385L48.0002 33.7718L46.2442 31.7649L36.9108 39.9316L38.6668 41.9385ZM44.0002 53.3335H38.6668V56.0001H44.0002V53.3335ZM57.3335 53.3335H52.0002V56.0001H57.3335V53.3335ZM44.0002 48.0001V53.3335H46.6668V48.0001H44.0002ZM52.0002 53.3335V48.0001H49.3335V53.3335H52.0002ZM49.3335 45.3335H46.6668V48.0001H49.3335V45.3335ZM52.0002 48.0001C52.0002 46.5274 50.8063 45.3335 49.3335 45.3335V48.0001H52.0002ZM46.6668 48.0001V45.3335C45.1941 45.3335 44.0002 46.5274 44.0002 48.0001H46.6668ZM52.0002 53.3335H49.3335C49.3335 54.8062 50.5274 56.0001 52.0002 56.0001V53.3335ZM44.0002 56.0001C45.4729 56.0001 46.6668 54.8062 46.6668 53.3335H44.0002V56.0001ZM38.6668 41.9385L38.6668 41.9385L36.9108 39.9316C36.3321 40.438 36.0002 41.1695 36.0002 41.9385H38.6668ZM36.0002 53.3335C36.0002 54.8062 37.1941 56.0001 38.6668 56.0001V53.3335H38.6668H36.0002ZM57.3335 53.3335V56.0001C58.8063 56.0001 60.0002 54.8062 60.0002 53.3335H57.3335ZM57.3335 41.9385L57.3335 41.9385H60.0002C60.0002 41.1695 59.6682 40.438 59.0895 39.9316L57.3335 41.9385ZM49.7562 31.7649C48.7508 30.8852 47.2496 30.8852 46.2442 31.7649L48.0002 33.7718L48.0002 33.7718L49.7562 31.7649Z" fill="white"/>
</g>
<defs>
<filter id="filter0_d_1_205" x="0" y="0" width="96" height="96" filterUnits="userSpaceOnUse" color-interpolation-filters="sRGB">
<feFlood flood-opacity="0" result="BackgroundImageFix"/>
<feColorMatrix in="SourceAlpha" type="matrix" values="0 0 0 0 0 0 0 0 0 0 0 0 0 0 0 0 0 0 127 0" result="hardAlpha"/>
<feOffset dy="4"/>
<feGaussianBlur stdDeviation="10"/>
<feColorMatrix type="matrix" values="0 0 0 0 0.372549 0 0 0 0 0.478431 0 0 0 0 0.917647 0 0 0 0.4 0"/>
<feBlend mode="normal" in2="BackgroundImageFix" result="effect1_dropShadow_1_205"/>
<feBlend mode="normal" in="SourceGraphic" in2="effect1_dropShadow_1_205" result="shape"/>
</filter>
</defs>
</svg>
