<svg width="96" height="92" viewBox="0 0 96 92" fill="none" xmlns="http://www.w3.org/2000/svg">
<g filter="url(#filter0_d_1_215)">
<rect x="20" y="16" width="56" height="56" rx="28" fill="#5F7AEA"/>
<path d="M47.0574 47.0572C46.5367 47.5779 46.5367 48.4221 47.0574 48.9428C47.5781 49.4635 48.4223 49.4635 48.943 48.9428L47.0574 47.0572ZM52.0002 44L52.943 44.9428C53.193 44.6928 53.3335 44.3536 53.3335 44C53.3335 43.6464 53.193 43.3072 52.943 43.0572L52.0002 44ZM48.943 39.0572C48.4223 38.5365 47.5781 38.5365 47.0574 39.0572C46.5367 39.5779 46.5367 40.4221 47.0574 40.9428L48.943 39.0572ZM37.3335 42.6667C36.5971 42.6667 36.0002 43.2636 36.0002 44C36.0002 44.7364 36.5971 45.3333 37.3335 45.3333L37.3335 42.6667ZM48.943 48.9428L52.943 44.9428L51.0574 43.0572L47.0574 47.0572L48.943 48.9428ZM52.943 43.0572L48.943 39.0572L47.0574 40.9428L51.0574 44.9428L52.943 43.0572ZM37.3335 45.3333L52.0002 45.3333V42.6667L37.3335 42.6667L37.3335 45.3333Z" fill="white"/>
<path d="M42.6667 37.3335C42.6667 38.0699 43.2636 38.6668 44 38.6668C44.7364 38.6668 45.3333 38.0699 45.3333 37.3335H42.6667ZM45.3333 50.6668C45.3333 49.9305 44.7364 49.3335 44 49.3335C43.2636 49.3335 42.6667 49.9305 42.6667 50.6668H45.3333ZM45.3333 34.6668H57.3333V32.0002H45.3333V34.6668ZM57.3333 34.6668V53.3335H60V34.6668H57.3333ZM57.3333 53.3335H45.3333V56.0002H57.3333V53.3335ZM45.3333 37.3335V34.6668H42.6667V37.3335H45.3333ZM45.3333 53.3335V50.6668H42.6667V53.3335H45.3333ZM45.3333 53.3335H45.3333H42.6667C42.6667 54.8063 43.8606 56.0002 45.3333 56.0002V53.3335ZM57.3333 53.3335V56.0002C58.8061 56.0002 60 54.8063 60 53.3335H57.3333ZM57.3333 34.6668H60C60 33.1941 58.8061 32.0002 57.3333 32.0002V34.6668ZM45.3333 32.0002C43.8606 32.0002 42.6667 33.1941 42.6667 34.6668H45.3333V34.6668V32.0002Z" fill="white"/>
</g>
<defs>
<filter id="filter0_d_1_215" x="0" y="0" width="96" height="96" filterUnits="userSpaceOnUse" color-interpolation-filters="sRGB">
<feFlood flood-opacity="0" result="BackgroundImageFix"/>
<feColorMatrix in="SourceAlpha" type="matrix" values="0 0 0 0 0 0 0 0 0 0 0 0 0 0 0 0 0 0 127 0" result="hardAlpha"/>
<feOffset dy="4"/>
<feGaussianBlur stdDeviation="10"/>
<feColorMatrix type="matrix" values="0 0 0 0 0.372549 0 0 0 0 0.478431 0 0 0 0 0.917647 0 0 0 0.4 0"/>
<feBlend mode="normal" in2="BackgroundImageFix" result="effect1_dropShadow_1_215"/>
<feBlend mode="normal" in="SourceGraphic" in2="effect1_dropShadow_1_215" result="shape"/>
</filter>
</defs>
</svg>
