<svg width="96" height="96" viewBox="0 0 96 96" fill="none" xmlns="http://www.w3.org/2000/svg">
<g filter="url(#filter0_d_1_200)">
<rect x="20" y="16" width="56" height="56" rx="28" fill="#5F7AEA"/>
<path d="M58.6667 44C58.6667 49.891 53.891 54.6667 48 54.6667V57.3333C55.3638 57.3333 61.3333 51.3638 61.3333 44H58.6667ZM48 54.6667C42.109 54.6667 37.3333 49.891 37.3333 44H34.6667C34.6667 51.3638 40.6362 57.3333 48 57.3333V54.6667ZM37.3333 44C37.3333 38.109 42.109 33.3333 48 33.3333V30.6667C40.6362 30.6667 34.6667 36.6362 34.6667 44H37.3333ZM48 33.3333C53.891 33.3333 58.6667 38.109 58.6667 44H61.3333C61.3333 36.6362 55.3638 30.6667 48 30.6667V33.3333Z" fill="white"/>
<path d="M47.9336 48.5999V47.2665C47.1972 47.2665 46.6003 47.8635 46.6003 48.5999H47.9336ZM48.0669 48.5999H49.4003C49.4003 47.8635 48.8033 47.2665 48.0669 47.2665V48.5999ZM48.0669 48.7332V50.0665C48.8033 50.0665 49.4003 49.4696 49.4003 48.7332H48.0669ZM47.9336 48.7332H46.6003C46.6003 49.4696 47.1972 50.0665 47.9336 50.0665V48.7332ZM47.9336 49.9332H48.0669V47.2665H47.9336V49.9332ZM46.7336 48.5999V48.7332H49.4003V48.5999H46.7336ZM48.0669 47.3999H47.9336V50.0665H48.0669V47.3999ZM49.2669 48.7332V48.5999H46.6003V48.7332H49.2669Z" fill="white"/>
<path d="M44.0136 39.8113C43.9094 40.5403 44.416 41.2157 45.1449 41.3198C45.8739 41.424 46.5493 40.9174 46.6534 40.1884L44.0136 39.8113ZM48.0002 44.0001L47.1389 42.9822C46.8395 43.2356 46.6668 43.6079 46.6668 44.0001H48.0002ZM46.6668 45.3334C46.6668 46.0698 47.2638 46.6667 48.0002 46.6667C48.7365 46.6667 49.3335 46.0698 49.3335 45.3334H46.6668ZM46.6534 40.1884C46.7518 39.5001 47.0799 39.2472 47.382 39.1425C47.7639 39.0102 48.2612 39.0702 48.6341 39.3095C48.9619 39.5199 49.1401 39.8227 49.0937 40.2565C49.0387 40.7702 48.6376 41.714 47.1389 42.9822L48.8614 45.0179C50.6127 43.536 51.5866 42.0215 51.7452 40.5403C51.9123 38.9793 51.1425 37.7508 50.0745 37.0653C49.0516 36.4088 47.7052 36.2083 46.5089 36.6228C45.233 37.065 44.2486 38.1663 44.0136 39.8113L46.6534 40.1884ZM46.6668 44.0001V45.3334H49.3335V44.0001H46.6668Z" fill="white"/>
</g>
<defs>
<filter id="filter0_d_1_200" x="0" y="0" width="96" height="96" filterUnits="userSpaceOnUse" color-interpolation-filters="sRGB">
<feFlood flood-opacity="0" result="BackgroundImageFix"/>
<feColorMatrix in="SourceAlpha" type="matrix" values="0 0 0 0 0 0 0 0 0 0 0 0 0 0 0 0 0 0 127 0" result="hardAlpha"/>
<feOffset dy="4"/>
<feGaussianBlur stdDeviation="10"/>
<feColorMatrix type="matrix" values="0 0 0 0 0.372549 0 0 0 0 0.478431 0 0 0 0 0.917647 0 0 0 0.4 0"/>
<feBlend mode="normal" in2="BackgroundImageFix" result="effect1_dropShadow_1_200"/>
<feBlend mode="normal" in="SourceGraphic" in2="effect1_dropShadow_1_200" result="shape"/>
</filter>
</defs>
</svg>
