<svg width="96" height="96" viewBox="0 0 96 96" fill="none" xmlns="http://www.w3.org/2000/svg">
<g filter="url(#filter0_d_1_191)">
<rect x="20" y="16" width="56" height="56" rx="28" fill="#5F7AEA"/>
<path d="M51 44C51 45.6569 49.6569 47 48 47V49C50.7614 49 53 46.7614 53 44H51ZM48 47C46.3431 47 45 45.6569 45 44H43C43 46.7614 45.2386 49 48 49V47ZM45 44C45 42.3431 46.3431 41 48 41V39C45.2386 39 43 41.2386 43 44H45ZM48 41C49.6569 41 51 42.3431 51 44H53C53 41.2386 50.7614 39 48 39V41Z" fill="white"/>
<path d="M55.1013 39.8262L55.9672 39.326L55.9672 39.326L55.1013 39.8262ZM55.1671 39.94L54.3012 40.4402L54.3012 40.4402L55.1671 39.94ZM55.9266 40.6874L56.4128 39.8135L56.4128 39.8135L55.9266 40.6874ZM57.4778 41.5503L56.9916 42.4242L56.9916 42.4242L57.4778 41.5503ZM57.9916 42.4219L56.9916 42.4242V42.4242L57.9916 42.4219ZM57.9988 45.5738L56.9988 45.576V45.576L57.9988 45.5738ZM57.4835 46.4507L56.9988 45.576V45.576L57.4835 46.4507ZM55.9286 47.3124L56.4133 48.187L55.9286 47.3124ZM55.1662 48.0613L54.3003 47.5611L54.3003 47.5611L55.1662 48.0613ZM55.1013 48.1737L55.9672 48.6739L55.9672 48.6738L55.1013 48.1737ZM54.8334 49.2077L53.8336 49.2245V49.2245L54.8334 49.2077ZM54.8634 50.9886L53.8635 51.0054L54.8634 50.9886ZM54.3655 51.8703L53.8635 51.0054H53.8635L54.3655 51.8703ZM51.6375 53.4536L52.1395 54.3185H52.1395L51.6375 53.4536ZM50.6208 53.4461L51.1356 52.5887L50.6208 53.4461ZM49.0948 52.5299L48.5801 53.3873L49.0948 52.5299ZM46.9062 52.5287L47.4199 53.3867L47.4199 53.3867L46.9062 52.5287ZM45.3871 53.4383L44.8734 52.5803L44.8734 52.5803L45.3871 53.4383ZM44.3741 53.4468L44.8734 52.5803L44.3741 53.4468ZM41.6375 51.8698L42.1368 51.0033L41.6375 51.8698ZM41.1369 50.9865L42.1368 51.0034L41.1369 50.9865ZM41.1668 49.2133L40.167 49.1965L41.1668 49.2133ZM40.9029 48.186L41.7708 47.6893L40.9029 48.186ZM40.8334 48.0646L39.9655 48.5613L39.9655 48.5613L40.8334 48.0646ZM40.0699 47.3104L39.5838 48.1842H39.5838L40.0699 47.3104ZM38.5225 46.4495L38.0363 47.3234L38.0363 47.3234L38.5225 46.4495ZM38.0086 45.5779L37.0086 45.5802L38.0086 45.5779ZM38.0015 42.4261L39.0015 42.4238L38.0015 42.4261ZM38.5167 41.5491L39.0015 42.4238H39.0015L38.5167 41.5491ZM40.0716 40.6875L39.5869 39.8128L39.5869 39.8128L40.0716 40.6875ZM40.834 39.9385L39.9681 39.4383L39.9681 39.4383L40.834 39.9385ZM40.8989 39.8262L41.7648 40.3264L41.7648 40.3264L40.8989 39.8262ZM41.1668 38.7922L42.1667 38.7753L41.1668 38.7922ZM41.1368 37.0112L40.137 37.0281L41.1368 37.0112ZM41.6347 36.1295L42.1367 36.9944L42.1367 36.9944L41.6347 36.1295ZM44.3627 34.5462L44.8647 35.4111L44.8647 35.4111L44.3627 34.5462ZM45.3794 34.5538L44.8647 35.4111V35.4111L45.3794 34.5538ZM46.9055 35.4699L46.3908 36.3273L46.9055 35.4699ZM49.094 35.4711L48.5803 34.6132L48.5803 34.6132L49.094 35.4711ZM50.6131 34.5615L50.0994 33.7036V33.7036L50.6131 34.5615ZM51.6261 34.5531L52.1254 33.6866L52.1254 33.6866L51.6261 34.5531ZM54.3628 36.1301L54.8621 35.2636L54.3628 36.1301ZM54.8634 37.0133L53.8635 36.9965V36.9965L54.8634 37.0133ZM54.8334 38.7922L53.8336 38.7753V38.7753L54.8334 38.7922ZM54.2354 40.3264L54.3012 40.4402L56.033 39.4399L55.9672 39.326L54.2354 40.3264ZM55.4405 41.5613L56.9916 42.4242L57.9639 40.6764L56.4128 39.8135L55.4405 41.5613ZM56.9916 42.4242L56.9988 45.576L58.9988 45.5715L58.9916 42.4197L56.9916 42.4242ZM56.9988 45.576L55.4439 46.4377L56.4133 48.187L57.9682 47.3254L56.9988 45.576ZM54.3003 47.5611L54.2354 47.6735L55.9672 48.6738L56.0321 48.5615L54.3003 47.5611ZM53.8336 49.2245L53.8635 51.0054L55.8633 50.9718L55.8333 49.1909L53.8336 49.2245ZM53.8635 51.0054L51.1356 52.5887L52.1395 54.3185L54.8675 52.7352L53.8635 51.0054ZM51.1356 52.5887L49.6095 51.6725L48.5801 53.3873L50.1061 54.3034L51.1356 52.5887ZM48.0654 51.2446H47.9337V53.2446H48.0654V51.2446ZM46.3925 51.6707L44.8734 52.5803L45.9008 54.2963L47.4199 53.3867L46.3925 51.6707ZM44.8734 52.5803L42.1368 51.0033L41.1382 52.7362L43.8748 54.3132L44.8734 52.5803ZM42.1368 51.0034L42.1667 49.2302L40.167 49.1965L40.1371 50.9696L42.1368 51.0034ZM41.7708 47.6893L41.7013 47.5678L39.9655 48.5613L40.035 48.6828L41.7708 47.6893ZM40.556 46.4365L39.0086 45.5756L38.0363 47.3234L39.5838 48.1842L40.556 46.4365ZM39.0086 45.5756L39.0015 42.4238L37.0015 42.4284L37.0086 45.5802L39.0086 45.5756ZM39.0015 42.4238L40.5564 41.5621L39.5869 39.8128L38.032 40.6745L39.0015 42.4238ZM41.6999 40.4387L41.7648 40.3264L40.033 39.326L39.9681 39.4383L41.6999 40.4387ZM42.1667 38.7753L42.1367 36.9944L40.137 37.0281L40.167 38.809L42.1667 38.7753ZM42.1367 36.9944L44.8647 35.4111L43.8607 33.6814L41.1328 35.2647L42.1367 36.9944ZM44.8647 35.4111L46.3908 36.3273L47.4202 34.6126L45.8941 33.6964L44.8647 35.4111ZM47.9349 36.7552H48.0666V34.7552H47.9349V36.7552ZM49.6078 36.3291L51.1268 35.4195L50.0994 33.7036L48.5803 34.6132L49.6078 36.3291ZM51.1268 35.4195L53.8635 36.9965L54.8621 35.2636L52.1254 33.6866L51.1268 35.4195ZM53.8635 36.9965L53.8336 38.7753L55.8333 38.809L55.8632 37.0302L53.8635 36.9965ZM53.8635 36.9965L53.8635 36.9965L55.8632 37.0302C55.8755 36.3031 55.4921 35.6267 54.8621 35.2636L53.8635 36.9965ZM51.1268 35.4195L51.1268 35.4195L52.1254 33.6866C51.497 33.3245 50.7217 33.331 50.0994 33.7036L51.1268 35.4195ZM48.0666 36.7552C48.6094 36.7552 49.1421 36.6079 49.6078 36.3291L48.5803 34.6132C48.4251 34.7061 48.2475 34.7552 48.0666 34.7552V36.7552ZM46.3908 36.3273C46.8572 36.6073 47.3909 36.7552 47.9349 36.7552V34.7552C47.7536 34.7552 47.5757 34.7059 47.4202 34.6126L46.3908 36.3273ZM44.8647 35.4111L44.8647 35.4111L45.8941 33.6964C45.2696 33.3215 44.4907 33.3157 43.8607 33.6814L44.8647 35.4111ZM42.1367 36.9944V36.9944L41.1328 35.2647C40.5058 35.6286 40.1248 36.3032 40.137 37.0281L42.1367 36.9944ZM41.7648 40.3264C42.0369 39.8554 42.1758 39.3192 42.1667 38.7753L40.167 38.809C40.17 38.9903 40.1237 39.169 40.033 39.326L41.7648 40.3264ZM40.5564 41.5621C41.0324 41.2983 41.4277 40.91 41.6999 40.4387L39.9681 39.4383C39.8774 39.5954 39.7456 39.7249 39.5869 39.8128L40.5564 41.5621ZM39.0015 42.4238L39.0015 42.4238L38.032 40.6745C37.3946 41.0277 36.9998 41.6996 37.0015 42.4284L39.0015 42.4238ZM39.0086 45.5756L39.0086 45.5756L37.0086 45.5802C37.0103 46.3045 37.4034 46.9713 38.0363 47.3234L39.0086 45.5756ZM41.7013 47.5678C41.4297 47.0934 41.0337 46.7022 40.556 46.4365L39.5838 48.1842C39.743 48.2728 39.875 48.4032 39.9655 48.5613L41.7013 47.5678ZM42.1667 49.2302C42.1758 48.6903 42.039 48.1579 41.7708 47.6893L40.035 48.6828C40.1244 48.839 40.17 49.0165 40.167 49.1965L42.1667 49.2302ZM42.1368 51.0033V51.0034L40.1371 50.9696C40.1248 51.6967 40.5081 52.3731 41.1382 52.7362L42.1368 51.0033ZM44.8734 52.5803L44.8734 52.5803L43.8748 54.3132C44.5033 54.6754 45.2785 54.6689 45.9008 54.2962L44.8734 52.5803ZM47.9337 51.2446C47.3908 51.2446 46.8582 51.3919 46.3925 51.6708L47.4199 53.3867C47.5752 53.2937 47.7527 53.2446 47.9337 53.2446V51.2446ZM49.6095 51.6725C49.1431 51.3925 48.6093 51.2446 48.0654 51.2446V53.2446C48.2467 53.2446 48.4246 53.2939 48.5801 53.3873L49.6095 51.6725ZM51.1356 52.5887H51.1356L50.1061 54.3034C50.7306 54.6783 51.5095 54.6841 52.1395 54.3185L51.1356 52.5887ZM53.8635 51.0054L53.8635 51.0054L54.8675 52.7352C55.4945 52.3713 55.8755 51.6966 55.8633 50.9718L53.8635 51.0054ZM54.2354 47.6735C53.9633 48.1445 53.8244 48.6806 53.8336 49.2245L55.8333 49.1909C55.8302 49.0096 55.8765 48.8309 55.9672 48.6739L54.2354 47.6735ZM55.4439 46.4377C54.9679 46.7015 54.5725 47.0898 54.3003 47.5611L56.0321 48.5615C56.1229 48.4044 56.2546 48.275 56.4133 48.187L55.4439 46.4377ZM56.9988 45.576V45.576L57.9682 47.3254C58.6056 46.9721 59.0004 46.3002 58.9988 45.5715L56.9988 45.576ZM56.9916 42.4242L56.9916 42.4242L58.9916 42.4197C58.99 41.6954 58.5969 41.0286 57.9639 40.6764L56.9916 42.4242ZM54.3012 40.4402C54.5726 40.9101 54.9663 41.2975 55.4405 41.5613L56.4128 39.8135C56.2547 39.7256 56.1235 39.5965 56.033 39.4398L54.3012 40.4402ZM55.9672 39.326C55.8765 39.169 55.8302 38.9903 55.8333 38.809L53.8336 38.7753C53.8244 39.3192 53.9633 39.8554 54.2354 40.3264L55.9672 39.326Z" fill="white"/>
</g>
<defs>
<filter id="filter0_d_1_191" x="0" y="0" width="96" height="96" filterUnits="userSpaceOnUse" color-interpolation-filters="sRGB">
<feFlood flood-opacity="0" result="BackgroundImageFix"/>
<feColorMatrix in="SourceAlpha" type="matrix" values="0 0 0 0 0 0 0 0 0 0 0 0 0 0 0 0 0 0 127 0" result="hardAlpha"/>
<feOffset dy="4"/>
<feGaussianBlur stdDeviation="10"/>
<feColorMatrix type="matrix" values="0 0 0 0 0.372549 0 0 0 0 0.478431 0 0 0 0 0.917647 0 0 0 0.4 0"/>
<feBlend mode="normal" in2="BackgroundImageFix" result="effect1_dropShadow_1_191"/>
<feBlend mode="normal" in="SourceGraphic" in2="effect1_dropShadow_1_191" result="shape"/>
</filter>
</defs>
</svg>
