<svg width="32" height="32" viewBox="0 0 32 32" fill="none" xmlns="http://www.w3.org/2000/svg">
<g clip-path="url(#clip0_64_313)">
<rect x="6.665" y="6.665" width="18.67" height="16.0033" rx="3.335" stroke="#9B9EA5" stroke-width="2.67"/>
<mask id="path-2-outside-1_64_313" maskUnits="userSpaceOnUse" x="9" y="-0.333496" width="14" height="9" fill="black">
<rect fill="white" x="9" y="-0.333496" width="14" height="9"/>
<path d="M12 4.6665C12 3.72369 12 3.25229 12.2929 2.9594C12.5858 2.6665 13.0572 2.6665 14 2.6665H18C18.9428 2.6665 19.4142 2.6665 19.7071 2.9594C20 3.25229 20 3.72369 20 4.6665V5.31883H16H12V4.6665Z"/>
</mask>
<path d="M20 5.31883V7.98883H22.67V5.31883H20ZM12 5.31883H9.33V7.98883H12V5.31883ZM14 5.3365H18V-0.00349617H14V5.3365ZM17.33 4.6665V5.31883H22.67V4.6665H17.33ZM14.67 5.31883V4.6665H9.33V5.31883H14.67ZM20 2.64883H16V7.98883H20V2.64883ZM16 2.64883H12V7.98883H16V2.64883ZM18 5.3365C18.2456 5.3365 18.4152 5.33668 18.5559 5.34023C18.698 5.34382 18.7446 5.34972 18.7415 5.34931C18.7367 5.34866 18.6123 5.33281 18.4335 5.25926C18.2335 5.17695 18.0145 5.04279 17.8191 4.84737L21.5951 1.07142C20.8699 0.346202 20.0214 0.133342 19.453 0.0569246C18.9615 -0.00916648 18.3959 -0.00349617 18 -0.00349617V5.3365ZM22.67 4.6665C22.67 4.27058 22.6757 3.70504 22.6096 3.21346C22.5332 2.64507 22.3203 1.79664 21.5951 1.07142L17.8191 4.84737C17.6237 4.65196 17.4896 4.43305 17.4072 4.23297C17.3337 4.05422 17.3178 3.92982 17.3172 3.925C17.3168 3.9219 17.3227 3.96847 17.3263 4.11056C17.3298 4.25131 17.33 4.42088 17.33 4.6665H22.67ZM14 -0.00349617C13.6041 -0.00349617 13.0385 -0.00916648 12.547 0.0569246C11.9786 0.133342 11.1301 0.346202 10.4049 1.07142L14.1809 4.84737C13.9855 5.04279 13.7665 5.17695 13.5665 5.25926C13.3877 5.33281 13.2633 5.34866 13.2585 5.34931C13.2554 5.34972 13.302 5.34382 13.4441 5.34023C13.5848 5.33668 13.7544 5.3365 14 5.3365V-0.00349617ZM14.67 4.6665C14.67 4.42088 14.6702 4.25131 14.6737 4.11057C14.6773 3.96847 14.6832 3.9219 14.6828 3.925C14.6822 3.92982 14.6663 4.05422 14.5928 4.23297C14.5104 4.43305 14.3763 4.65196 14.1809 4.84737L10.4049 1.07142C9.6797 1.79664 9.46684 2.64507 9.39042 3.21346C9.32433 3.70504 9.33 4.27058 9.33 4.6665H14.67Z" fill="#9B9EA5" mask="url(#path-2-outside-1_64_313)"/>
<mask id="path-4-outside-2_64_313" maskUnits="userSpaceOnUse" x="9" y="21.3335" width="14" height="11" fill="black">
<rect fill="white" x="9" y="21.3335" width="14" height="11"/>
<path d="M12 27.3335C12 28.2763 12 28.7477 12.2929 29.0406C12.5858 29.3335 13.0572 29.3335 14 29.3335H18C18.9428 29.3335 19.4142 29.3335 19.7071 29.0406C20 28.7477 20 28.2763 20 27.3335V24.0331H16H12V27.3335Z"/>
</mask>
<path d="M20 24.0331V21.3631H22.67V24.0331H20ZM12 24.0331H9.33V21.3631H12V24.0331ZM14 26.6635H18V32.0035H14V26.6635ZM17.33 27.3335V24.0331H22.67V27.3335H17.33ZM14.67 24.0331V27.3335H9.33V24.0331H14.67ZM20 26.7031H16V21.3631H20V26.7031ZM16 26.7031H12V21.3631H16V26.7031ZM18 26.6635C18.2456 26.6635 18.4152 26.6633 18.5559 26.6598C18.698 26.6562 18.7446 26.6503 18.7415 26.6507C18.7367 26.6513 18.6123 26.6672 18.4335 26.7407C18.2335 26.823 18.0145 26.9572 17.8191 27.1526L21.5951 30.9286C20.8699 31.6538 20.0214 31.8667 19.453 31.9431C18.9615 32.0092 18.3959 32.0035 18 32.0035V26.6635ZM22.67 27.3335C22.67 27.7294 22.6757 28.295 22.6096 28.7865C22.5332 29.3549 22.3203 30.2034 21.5951 30.9286L17.8191 27.1526C17.6237 27.348 17.4896 27.567 17.4072 27.767C17.3337 27.9458 17.3178 28.0702 17.3172 28.075C17.3168 28.0781 17.3227 28.0315 17.3263 27.8894C17.3298 27.7487 17.33 27.5791 17.33 27.3335H22.67ZM14 32.0035C13.6041 32.0035 13.0385 32.0092 12.547 31.9431C11.9786 31.8667 11.1301 31.6538 10.4049 30.9286L14.1809 27.1526C13.9855 26.9572 13.7665 26.823 13.5665 26.7407C13.3877 26.6672 13.2633 26.6513 13.2585 26.6507C13.2554 26.6503 13.302 26.6562 13.4441 26.6598C13.5848 26.6633 13.7544 26.6635 14 26.6635V32.0035ZM14.67 27.3335C14.67 27.5791 14.6702 27.7487 14.6737 27.8894C14.6773 28.0315 14.6832 28.0781 14.6828 28.075C14.6822 28.0702 14.6663 27.9458 14.5928 27.767C14.5104 27.567 14.3763 27.348 14.1809 27.1526L10.4049 30.9286C9.6797 30.2034 9.46684 29.3549 9.39042 28.7865C9.32433 28.295 9.33 27.7294 9.33 27.3335H14.67Z" fill="#9B9EA5" mask="url(#path-4-outside-2_64_313)"/>
</g>
<defs>
<clipPath id="clip0_64_313">
<rect width="32" height="32" fill="white" transform="matrix(1 0 0 -1 0 32)"/>
</clipPath>
</defs>
</svg>
